<?xml version="1.0" standalone="no"?>
<!DOCTYPE svg PUBLIC "-//W3C//DTD SVG 20010904//EN"
 "http://www.w3.org/TR/2001/REC-SVG-20010904/DTD/svg10.dtd">
<svg version="1.0" xmlns="http://www.w3.org/2000/svg"
 width="720.000000pt" height="720.000000pt" viewBox="0 0 720.000000 720.000000"
 preserveAspectRatio="xMidYMid meet">
<metadata>
Created by potrace 1.11, written by Peter Selinger 2001-2013
</metadata>
<g transform="translate(0.000000,720.000000) scale(0.100000,-0.100000)"
fill="#000000" stroke="none">
<path d="M3789 6456 c-3 -3 -73 -6 -157 -7 -85 -1 -149 -5 -146 -10 3 -5 0 -9
-5 -9 -6 0 -11 5 -11 10 0 6 -5 10 -11 10 -5 0 -7 -6 -3 -12 5 -8 0 -7 -11 2
-11 9 -16 10 -11 3 5 -10 -8 -13 -56 -14 -35 0 -79 -2 -98 -3 -139 -11 -239
-19 -265 -21 -16 -1 -66 -6 -110 -9 -44 -4 -91 -9 -105 -11 -14 -2 -61 -7
-105 -11 -44 -3 -82 -8 -85 -9 -3 -2 -43 -6 -90 -10 -47 -4 -87 -9 -90 -10 -3
-2 -37 -6 -75 -10 -39 -4 -79 -9 -90 -11 -11 -3 -56 -9 -100 -15 -44 -5 -98
-12 -120 -15 -22 -3 -60 -8 -85 -11 -126 -13 -170 -19 -272 -39 -42 -8 -83
-14 -90 -13 -7 1 -20 0 -28 -4 -8 -3 -53 -17 -100 -32 -187 -59 -334 -164
-394 -282 -118 -233 -105 -656 40 -1302 19 -86 86 -361 149 -611 102 -407 159
-657 167 -730 3 -24 0 -26 -134 -52 -313 -62 -604 -184 -807 -337 -41 -31 -82
-60 -92 -66 -11 -5 -19 -15 -19 -20 0 -6 -16 -27 -36 -46 -86 -83 -157 -198
-195 -314 -18 -56 -23 -92 -22 -175 1 -91 5 -118 33 -200 18 -52 35 -97 39
-100 8 -6 35 -63 33 -71 -1 -7 281 -179 443 -270 282 -157 739 -371 1005 -470
614 -228 1184 -357 1768 -400 211 -15 728 -7 912 15 774 92 1441 323 2101 728
246 152 636 439 623 460 -3 5 3 28 14 52 33 70 54 166 54 246 1 109 -19 180
-77 285 -41 73 -65 104 -132 174 -29 30 -53 57 -53 60 -1 3 -14 15 -30 26 -16
11 -71 49 -122 83 -220 152 -554 285 -864 345 l-110 21 22 100 c12 56 74 304
138 551 228 885 280 1176 281 1565 0 263 -7 307 -70 437 -142 289 -600 471
-1360 538 -179 16 -974 33 -986 21z m-2221 -3517 c517 -226 1032 -361 1584
-415 234 -23 662 -23 896 0 552 54 1067 189 1584 415 64 28 119 51 121 51 9 0
-15 -153 -39 -245 -29 -117 -109 -289 -182 -391 -292 -410 -872 -688 -1577
-754 -141 -13 -488 -13 -630 0 -834 78 -1494 433 -1750 940 -55 110 -89 205
-108 305 -18 93 -25 145 -20 145 2 0 57 -23 121 -51z"/>
<path d="M2713 6443 c9 -2 25 -2 35 0 9 3 1 5 -18 5 -19 0 -27 -2 -17 -5z"/>
<path d="M2778 6443 c6 -2 18 -2 25 0 6 3 1 5 -13 5 -14 0 -19 -2 -12 -5z"/>
<path d="M2558 6433 c6 -2 18 -2 25 0 6 3 1 5 -13 5 -14 0 -19 -2 -12 -5z"/>
<path d="M2438 6423 c7 -3 16 -2 19 1 4 3 -2 6 -13 5 -11 0 -14 -3 -6 -6z"/>
<path d="M2353 6413 c9 -2 23 -2 30 0 6 3 -1 5 -18 5 -16 0 -22 -2 -12 -5z"/>
<path d="M2268 6403 c7 -3 16 -2 19 1 4 3 -2 6 -13 5 -11 0 -14 -3 -6 -6z"/>
<path d="M2208 6393 c7 -3 16 -2 19 1 4 3 -2 6 -13 5 -11 0 -14 -3 -6 -6z"/>
<path d="M2138 6383 c7 -3 16 -2 19 1 4 3 -2 6 -13 5 -11 0 -14 -3 -6 -6z"/>
<path d="M2028 6363 c7 -3 16 -2 19 1 4 3 -2 6 -13 5 -11 0 -14 -3 -6 -6z"/>
<path d="M1988 6353 c7 -3 16 -2 19 1 4 3 -2 6 -13 5 -11 0 -14 -3 -6 -6z"/>
<path d="M250 2750 c-8 -5 -10 -10 -5 -10 6 0 17 5 25 10 8 5 11 10 5 10 -5 0
-17 -5 -25 -10z"/>
<path d="M7057 2699 c7 -7 15 -10 18 -7 3 3 -2 9 -12 12 -14 6 -15 5 -6 -5z"/>
<path d="M35 2660 c-16 -7 -17 -9 -3 -9 9 -1 20 4 23 9 7 11 7 11 -20 0z"/>
<path d="M7179 2023 c-13 -16 -12 -17 4 -4 16 13 21 21 13 21 -2 0 -10 -8 -17
-17z"/>
<path d="M7114 1968 l-19 -23 23 19 c21 18 27 26 19 26 -2 0 -12 -10 -23 -22z"/>
</g>
</svg>
